HIERARCHY
ROOT Hips
{
	OFFSET 0.00000 0.00000 0.00000
	CHANNELS 6 Xposition Yposition Zposition Zrotation Yrotation Xrotation 
	JOINT LHipJoint
	{
		OFFSET 0 0 0
		CHANNELS 3 Zrotation Yrotation Xrotation
		JOINT LeftUpLeg
		{
			OFFSET 1.81638 -1.86202 0.89635
			CHANNELS 3 Zrotation Yrotation Xrotation
			JOINT LeftLeg
			{
				OFFSET 2.63464 -7.23861 0.00000
				CHANNELS 3 Zrotation Yrotation Xrotation
				JOINT LeftFoot
				{
					OFFSET 2.45871 -6.75336 0.00000
					CHANNELS 3 Zrotation Yrotation Xrotation
					JOINT LeftToeBase
					{
						OFFSET 0.34235 -0.94059 2.20020
						CHANNELS 3 Zrotation Yrotation Xrotation
						End Site
						{
							OFFSET 0.00000 -0.00000 1.18611
						}
					}
				}
			}
		}
	}
	JOINT RHipJoint
	{
		OFFSET 0 0 0
		CHANNELS 3 Zrotation Yrotation Xrotation
		JOINT RightUpLeg
		{
			OFFSET -1.84405 -1.86203 0.89635
			CHANNELS 3 Zrotation Yrotation Xrotation
			JOINT RightLeg
			{
				OFFSET -2.71067 -7.44751 0.00000
				CHANNELS 3 Zrotation Yrotation Xrotation
				JOINT RightFoot
				{
					OFFSET -2.47159 -6.79060 0.00000
					CHANNELS 3 Zrotation Yrotation Xrotation
					JOINT RightToeBase
					{
						OFFSET -0.26223 -0.72048 2.36007
						CHANNELS 3 Zrotation Yrotation Xrotation
						End Site
						{
							OFFSET -0.00000 -0.00000 1.23343
						}
					}
				}
			}
		}
	}
	JOINT LowerBack
	{
		OFFSET 0 0 0
		CHANNELS 3 Zrotation Yrotation Xrotation
		JOINT Spine
		{
			OFFSET 0.02089 1.99248 -0.22512
			CHANNELS 3 Zrotation Yrotation Xrotation
			JOINT Spine1
			{
				OFFSET 0.01476 2.01356 -0.03079
				CHANNELS 3 Zrotation Yrotation Xrotation
				JOINT Neck
				{
					OFFSET 0 0 0
					CHANNELS 3 Zrotation Yrotation Xrotation
					JOINT Neck1
					{
						OFFSET 0.04846 1.65098 0.06663
						CHANNELS 3 Zrotation Yrotation Xrotation
						JOINT Head
						{
							OFFSET -0.06061 1.60634 -0.07565
							CHANNELS 3 Zrotation Yrotation Xrotation
							End Site
							{
								OFFSET -0.02954 1.73562 -0.03642
							}
						}
					}
				}
				JOINT LeftShoulder
				{
					OFFSET 0 0 0
					CHANNELS 3 Zrotation Yrotation Xrotation
					JOINT LeftArm
					{
						OFFSET 3.45234 1.47051 -0.06993
						CHANNELS 3 Zrotation Yrotation Xrotation
						JOINT LeftForeArm
						{
							OFFSET 5.49313 -0.00000 0.00000
							CHANNELS 3 Zrotation Yrotation Xrotation
							JOINT LeftHand
							{
								OFFSET 3.29037 -0.00000 0.00000
								CHANNELS 3 Zrotation Yrotation Xrotation
								JOINT LeftFingerBase
								{
									OFFSET 0 0 0
									CHANNELS 3 Zrotation Yrotation Xrotation
									JOINT LeftHandIndex1
									{
										OFFSET 0.72966 -0.00000 0.00000
										CHANNELS 3 Zrotation Yrotation Xrotation
										End Site
										{
											OFFSET 0.58827 -0.00000 0.00000
										}
									}
								}
								JOINT LThumb
								{
									OFFSET 0 0 0
									CHANNELS 3 Zrotation Yrotation Xrotation
									End Site
									{
										OFFSET 0.59725 -0.00000 0.59725
									}
								}
							}
						}
					}
				}
				JOINT RightShoulder
				{
					OFFSET 0 0 0
					CHANNELS 3 Zrotation Yrotation Xrotation
					JOINT RightArm
					{
						OFFSET -3.41935 1.44327 0.20453
						CHANNELS 3 Zrotation Yrotation Xrotation
						JOINT RightForeArm
						{
							OFFSET -5.23684 -0.00000 0.00000
							CHANNELS 3 Zrotation Yrotation Xrotation
							JOINT RightHand
							{
								OFFSET -3.38251 -0.00000 0.00000
								CHANNELS 3 Zrotation Yrotation Xrotation
								JOINT RightFingerBase
								{
									OFFSET 0 0 0
									CHANNELS 3 Zrotation Yrotation Xrotation
									JOINT RightHandIndex1
									{
										OFFSET -0.69145 -0.00000 0.00000
										CHANNELS 3 Zrotation Yrotation Xrotation
										End Site
										{
											OFFSET -0.55747 -0.00000 0.00000
										}
									}
								}
								JOINT RThumb
								{
									OFFSET 0 0 0
									CHANNELS 3 Zrotation Yrotation Xrotation
									End Site
									{
										OFFSET -0.56598 -0.00000 0.56598
									}
								}
							}
						}
					}
				}
			}
		}
	}
}
MOTION
Frames: 7
Frame Time: .0083333
-34.3173 17.4612 -2.6653 0 0 0 0 0 0 -21 0 0 0 0 0 0 0 0 0 0 0 0 0 0 21 0 0 0 0 0 0 0 0 0 0 0 0 0 0 0 0 0 0 0 0 0 0 -16 0 0 21 0 0 11 0 0 0 -8 0 0 0 0 0 0 0 0 0 0 0 0 0 0 0 0 0 0 0 0 8 0 0 0 0 0 0 0 0 0 0 0 0 0 0 0 0 0
-34.3173 17.4612 -2.6653 -38.7397 80.3332 -36.5286 0.0000 0.0000 0.0000 -9.4777 -8.1909 -20.5996 4.1052 12.2991 36.7984 0.3027 -19.5239 -16.1819 0.4283 4.2000 11.6400 0.0000 0.0000 0.0000 28.2120 6.6994 8.9446 -0.4943 -4.5075 12.5091 -1.8228 -0.6959 -25.8010 -0.1063 -2.1026 5.7894 2.7226 -1.2995 13.9474 2.5199 -0.9835 7.0268 1.2296 -0.3210 -0.4232 -0.9418 3.2120 -2.6335 -2.4407 4.2937 -7.3201 -0.6375 2.2663 -1.7955 -0.0000 -0.0000 0.0000 -82.1115 10.5162 33.7028 33.1826 -43.4699 -13.5475 -0.0000 0.0000 -3.4984 -0.3008 12.5957 -0.0656 -7.1250 0.0000 -0.0000 -24.2275 41.2451 2.4035 -0.0000 -0.0000 0.0000 74.4051 -8.1266 44.5509 -26.8273 38.0140 -9.3926 0.0000 0.0000 0.9731 -7.5324 -17.2733 2.2484 7.1250 -0.0000 -0.0000 19.1991 -46.4538 -0.7147
-34.3191 17.4611 -2.6642 -38.7148 80.3391 -36.5117 0.0000 0.0000 0.0000 -9.4816 -8.2064 -20.5861 4.1028 12.2960 36.7872 0.3084 -19.4909 -16.2063 0.3935 4.0277 11.1545 0.0000 0.0000 0.0000 28.2181 6.7371 8.9438 -0.4973 -4.5209 12.5471 -1.8207 -0.7320 -25.7988 -0.1025 -2.0646 5.6842 2.7178 -1.2967 13.9362 2.5251 -0.9809 7.0279 1.2372 -0.3199 -0.4158 -0.8925 3.2284 -2.6307 -2.4677 4.3136 -7.3091 -0.6540 2.2753 -1.7907 0.0000 0.0000 0.0000 -82.1030 10.5434 33.7487 33.2247 -43.5021 -13.5765 -0.0000 0.0000 -3.5034 -0.3525 12.6378 -0.0771 -7.1250 0.0000 -0.0000 -24.2855 41.2784 2.3886 0.0000 0.0000 0.0000 74.4645 -8.1376 44.4154 -26.7272 37.9178 -9.3310 0.0000 0.0000 1.0432 -7.6159 -17.0404 2.2439 7.1250 -0.0000 -0.0000 19.0349 -46.2436 -0.6059
-34.3214 17.4607 -2.6632 -38.7276 80.3480 -36.5365 0.0000 0.0000 0.0000 -9.4801 -8.1992 -20.6030 4.1089 12.3040 36.8159 0.3137 -19.4771 -16.2385 0.3584 3.8458 10.6431 0.0000 0.0000 0.0000 28.2145 6.6717 9.1972 -0.4576 -4.3396 12.0342 -1.7698 -0.8644 -25.4859 -0.1016 -2.0558 5.6598 2.7147 -1.2987 13.9358 2.5312 -0.9837 7.0247 1.2458 -0.3215 -0.4188 -0.8526 3.2155 -2.5690 -2.5349 4.2909 -7.3760 -0.6839 2.2656 -1.8209 0.0000 -0.0000 0.0000 -82.1109 10.5808 33.7752 33.2623 -43.5307 -13.6024 -0.0000 0.0000 -3.5127 -0.3844 12.6116 -0.0839 -7.1250 0.0000 -0.0000 -24.3025 41.2515 2.4079 0.0000 -0.0000 0.0000 74.1302 -8.8342 44.8551 -27.7232 38.8602 -9.9496 0.0000 0.0000 0.5580 -7.5998 -17.5883 2.3088 7.1250 -0.0000 -0.0000 19.2609 -46.7608 -0.8683
-34.3226 17.4838 -2.6615 -39.2081 80.2616 -36.9891 0.0000 0.0000 0.0000 -9.3640 -8.1208 -20.9599 4.1112 12.3070 36.8267 0.2662 -19.4347 -15.8452 0.3292 3.6875 10.1992 0.0000 0.0000 0.0000 28.3493 6.7064 9.2943 -0.4398 -4.2554 11.7964 -1.7371 -0.9265 -25.2745 -0.1018 -2.0579 5.6658 2.8363 -1.2943 13.9327 2.5685 -0.9615 7.0267 1.2132 -0.3076 -0.4162 -0.8494 3.2286 -2.6267 -2.5083 4.3114 -7.3386 -0.6744 2.2745 -1.7991 0.0000 -0.0000 0.0000 -82.1025 10.5494 33.8428 33.2701 -43.5366 -13.6077 -0.0000 0.0000 -3.5462 -0.3802 12.6086 -0.0830 -7.1250 0.0000 -0.0000 -24.2980 41.2492 2.4089 0.0000 -0.0000 0.0000 74.1124 -8.9745 44.8079 -27.8927 39.0173 -10.0561 0.0000 0.0000 0.4493 -7.6024 -17.6909 2.3226 7.1250 -0.0000 -0.0000 19.2990 -46.8582 -0.9182
-34.3234 17.4829 -2.6613 -39.0518 80.2895 -36.8498 0.0000 0.0000 0.0000 -9.4045 -8.1284 -20.8430 4.1050 12.2988 36.7973 0.2790 -19.4396 -15.9484 0.3123 3.5927 9.9335 0.0000 0.0000 0.0000 28.3074 6.6645 9.3782 -0.4222 -4.1706 11.5571 -1.7111 -1.0499 -25.1325 -0.1055 -2.0939 5.7653 2.8444 -1.2714 13.9242 2.5359 -0.9324 7.0155 1.1704 -0.2929 -0.4242 -0.7712 3.1818 -2.5571 -2.5419 4.2445 -7.3914 -0.6997 2.2407 -1.8264 -0.0000 -0.0000 0.0000 -82.0358 10.5865 33.9559 33.2929 -43.5540 -13.6235 -0.0000 0.0000 -3.5724 -0.6831 13.5363 -0.1599 -7.1250 0.0000 -0.0000 -24.8918 42.0633 1.9368 -0.0000 -0.0000 0.0000 74.3526 -8.7682 44.5321 -27.3057 38.4692 -9.6887 0.0000 0.0000 0.5623 -7.6584 -17.2644 2.2853 7.1250 -0.0000 -0.0000 19.0823 -46.4613 -0.7137
-34.3246 17.4878 -2.6606 -39.0940 80.2837 -36.8960 0.0000 0.0000 0.0000 -9.3968 -8.1136 -20.8720 4.1009 12.2935 36.7782 0.2742 -19.4245 -15.9013 0.2904 3.4655 9.5776 0.0000 0.0000 0.0000 28.3187 6.6420 9.4952 -0.4027 -4.0743 11.2857 -1.6808 -1.1417 -24.9469 -0.1065 -2.1047 5.7951 2.8781 -1.2605 13.9144 2.5306 -0.9147 7.0122 1.1433 -0.2833 -0.4230 -0.7227 3.1658 -2.5266 -2.5629 4.2206 -7.4173 -0.7152 2.2285 -1.8389 -0.0000 -0.0000 0.0000 -82.0041 10.6055 34.0315 33.3156 -43.5712 -13.6391 -0.0000 0.0000 -3.5961 -0.6828 13.5090 -0.1595 -7.1250 0.0000 -0.0000 -24.8813 42.0385 1.9523 -0.0000 -0.0000 0.0000 74.3800 -8.8734 44.5006 -27.3183 38.4811 -9.6966 0.0000 0.0000 0.4804 -7.6802 -17.2154 2.2856 7.1250 -0.0000 -0.0000 19.0440 -46.4177 -0.6910
